{
	"asset":{
		"generator":"Khronos glTF Blender I/O v3.6.27",
		"version":"2.0"
	},
	"extensionsUsed":[
		"KHR_lights_punctual"
	],
	"extensionsRequired":[
		"KHR_lights_punctual"
	],
	"extensions":{
		"KHR_lights_punctual":{
			"lights":[
				{
					"color":[
						1,
						0.6220766305923462,
						0.14953018724918365
					],
					"intensity":891.3631535470504,
					"type":"point",
					"name":"Point"
				},
				{
					"color":[
						0.854992687702179,
						1,
						0.9093259572982788
					],
					"intensity":546.4000081419945,
					"type":"directional",
					"name":"Sun"
				}
			]
		}
	},
	"scene":0,
	"scenes":[
		{
			"name":"Scene",
			"nodes":[
				0,
				1,
				2,
				3,
				4,
				5,
				6,
				7,
				8,
				9
			]
		}
	],
	"nodes":[
		{
			"extensions":{
				"KHR_lights_punctual":{
					"light":0
				}
			},
			"name":"Point",
			"rotation":[
				-0.7071067690849304,
				0,
				0,
				0.7071068286895752
			],
			"scale":[
				1.4689933061599731,
				1.4689931869506836,
				1.4689931869506836
			],
			"translation":[
				0,
				0.670051634311676,
				-0.4906782805919647
			]
		},
		{
			"extensions":{
				"KHR_lights_punctual":{
					"light":1
				}
			},
			"name":"Sun",
			"rotation":[
				-0.7071068286895752,
				0,
				0,
				0.7071068286895752
			]
		},
		{
			"mesh":0,
			"name":"tempe.002",
			"rotation":[
				0.3473193645477295,
				0.03776151314377785,
				0.930263876914978,
				0.11203794181346893
			],
			"translation":[
				-0.12274192273616791,
				0.04481564462184906,
				0.10985405743122101
			]
		},
		{
			"mesh":1,
			"name":"tempe.001",
			"rotation":[
				0.5155394077301025,
				0.011849847622215748,
				0.8566001653671265,
				0.01774541661143303
			],
			"translation":[
				-0.030763398855924606,
				0.0642586499452591,
				0.13984347879886627
			]
		},
		{
			"mesh":2,
			"name":"Plane",
			"scale":[
				4.212246894836426,
				4.212246894836426,
				4.212246894836426
			]
		},
		{
			"mesh":3,
			"name":"tahu utuh.001",
			"rotation":[
				-0.9098523259162903,
				-0.009270957671105862,
				0.41009092330932617,
				0.0625157281756401
			],
			"translation":[
				-0.103589728474617,
				0.057447560131549835,
				-0.03279581665992737
			]
		},
		{
			"mesh":4,
			"name":"plate",
			"rotation":[
				0,
				0.3371995687484741,
				0,
				0.9414331912994385
			],
			"translation":[
				0.020477112382650375,
				0,
				-0.0009242650121450424
			]
		},
		{
			"mesh":5,
			"name":"tahu iris",
			"rotation":[
				-0.346780925989151,
				0.06982877850532532,
				0.003901271615177393,
				0.935335099697113
			],
			"translation":[
				0.02626797743141651,
				0.09044749289751053,
				-0.08782705664634705
			]
		},
		{
			"mesh":6,
			"name":"tahu utuh",
			"rotation":[
				-0.03148980066180229,
				0.8290460109710693,
				0.00402410002425313,
				0.5582787394523621
			],
			"translation":[
				0.09363637864589691,
				0.0500066801905632,
				0.004408851265907288
			]
		},
		{
			"mesh":7,
			"name":"tempe",
			"rotation":[
				-0.053263530135154724,
				0.260617196559906,
				-0.011600234545767307,
				0.9639020562171936
			],
			"translation":[
				0.014113768935203552,
				0.040324557572603226,
				0.12904015183448792
			]
		}
	],
	"materials":[
		{
			"doubleSided":true,
			"name":"Material.001",
			"pbrMetallicRoughness":{}
		},
		{
			"doubleSided":true,
			"name":"Material.002",
			"pbrMetallicRoughness":{}
		},
		{
			"doubleSided":true,
			"name":"tahu_goreng",
			"pbrMetallicRoughness":{}
		},
		{
			"doubleSided":true,
			"name":"keramik",
			"pbrMetallicRoughness":{}
		},
		{
			"doubleSided":true,
			"name":"tahu_potong",
			"pbrMetallicRoughness":{}
		}
	],
	"meshes":[
		{
			"name":"Cube.007",
			"primitives":[
				{
					"attributes":{
						"POSITION":0,
						"NORMAL":1,
						"TEXCOORD_0":2
					},
					"indices":3,
					"material":0
				}
			]
		},
		{
			"name":"Cube.006",
			"primitives":[
				{
					"attributes":{
						"POSITION":4,
						"NORMAL":5,
						"TEXCOORD_0":6
					},
					"indices":3,
					"material":0
				}
			]
		},
		{
			"name":"Plane",
			"primitives":[
				{
					"attributes":{
						"POSITION":7,
						"NORMAL":8
					},
					"indices":9,
					"material":1
				}
			]
		},
		{
			"name":"Cube.004",
			"primitives":[
				{
					"attributes":{
						"POSITION":10,
						"NORMAL":11,
						"TEXCOORD_0":12
					},
					"indices":13,
					"material":2
				}
			]
		},
		{
			"name":"Circle",
			"primitives":[
				{
					"attributes":{
						"POSITION":14,
						"NORMAL":15
					},
					"indices":16,
					"material":3
				}
			]
		},
		{
			"name":"Cube.001",
			"primitives":[
				{
					"attributes":{
						"POSITION":17,
						"NORMAL":18,
						"TEXCOORD_0":19
					},
					"indices":20,
					"material":4
				}
			]
		},
		{
			"name":"Cube.002",
			"primitives":[
				{
					"attributes":{
						"POSITION":21,
						"NORMAL":22,
						"TEXCOORD_0":23
					},
					"indices":13,
					"material":2
				}
			]
		},
		{
			"name":"Cube.005",
			"primitives":[
				{
					"attributes":{
						"POSITION":24,
						"NORMAL":25,
						"TEXCOORD_0":26
					},
					"indices":3,
					"material":0
				}
			]
		}
	],
	"accessors":[
		{
			"bufferView":0,
			"componentType":5126,
			"count":227,
			"max":[
				0.04523191601037979,
				0.010465354658663273,
				0.10320951789617538
			],
			"min":[
				-0.04431244358420372,
				-0.010465354658663273,
				-0.10200753062963486
			],
			"type":"VEC3"
		},
		{
			"bufferView":1,
			"componentType":5126,
			"count":227,
			"type":"VEC3"
		},
		{
			"bufferView":2,
			"componentType":5126,
			"count":227,
			"type":"VEC2"
		},
		{
			"bufferView":3,
			"componentType":5123,
			"count":1152,
			"type":"SCALAR"
		},
		{
			"bufferView":4,
			"componentType":5126,
			"count":227,
			"max":[
				0.04523191601037979,
				0.010465354658663273,
				0.10320951789617538
			],
			"min":[
				-0.04431244358420372,
				-0.010465354658663273,
				-0.10200753062963486
			],
			"type":"VEC3"
		},
		{
			"bufferView":5,
			"componentType":5126,
			"count":227,
			"type":"VEC3"
		},
		{
			"bufferView":6,
			"componentType":5126,
			"count":227,
			"type":"VEC2"
		},
		{
			"bufferView":7,
			"componentType":5126,
			"count":4,
			"max":[
				1,
				0,
				1
			],
			"min":[
				-1,
				0,
				-1
			],
			"type":"VEC3"
		},
		{
			"bufferView":8,
			"componentType":5126,
			"count":4,
			"type":"VEC3"
		},
		{
			"bufferView":9,
			"componentType":5123,
			"count":6,
			"type":"SCALAR"
		},
		{
			"bufferView":10,
			"componentType":5126,
			"count":155,
			"max":[
				0.06679993867874146,
				0.03911292180418968,
				0.0827009379863739
			],
			"min":[
				-0.0667286291718483,
				-0.039121758192777634,
				-0.08270092308521271
			],
			"type":"VEC3"
		},
		{
			"bufferView":11,
			"componentType":5126,
			"count":155,
			"type":"VEC3"
		},
		{
			"bufferView":12,
			"componentType":5126,
			"count":155,
			"type":"VEC2"
		},
		{
			"bufferView":13,
			"componentType":5123,
			"count":756,
			"type":"SCALAR"
		},
		{
			"bufferView":14,
			"componentType":5126,
			"count":192,
			"max":[
				0.2794276475906372,
				0.0634147897362709,
				0.279427707195282
			],
			"min":[
				-0.2794276177883148,
				0.019478166475892067,
				-0.27942758798599243
			],
			"type":"VEC3"
		},
		{
			"bufferView":15,
			"componentType":5126,
			"count":192,
			"type":"VEC3"
		},
		{
			"bufferView":16,
			"componentType":5123,
			"count":1050,
			"type":"SCALAR"
		},
		{
			"bufferView":17,
			"componentType":5126,
			"count":160,
			"max":[
				0.06679993867874146,
				0.042099062353372574,
				0.03108864277601242
			],
			"min":[
				-0.0667286068201065,
				-0.039121758192777634,
				-0.08270092308521271
			],
			"type":"VEC3"
		},
		{
			"bufferView":18,
			"componentType":5126,
			"count":160,
			"type":"VEC3"
		},
		{
			"bufferView":19,
			"componentType":5126,
			"count":160,
			"type":"VEC2"
		},
		{
			"bufferView":20,
			"componentType":5123,
			"count":756,
			"type":"SCALAR"
		},
		{
			"bufferView":21,
			"componentType":5126,
			"count":155,
			"max":[
				0.06679993867874146,
				0.03911292180418968,
				0.0827009379863739
			],
			"min":[
				-0.0667286291718483,
				-0.039121758192777634,
				-0.08270092308521271
			],
			"type":"VEC3"
		},
		{
			"bufferView":22,
			"componentType":5126,
			"count":155,
			"type":"VEC3"
		},
		{
			"bufferView":23,
			"componentType":5126,
			"count":155,
			"type":"VEC2"
		},
		{
			"bufferView":24,
			"componentType":5126,
			"count":227,
			"max":[
				0.04523191601037979,
				0.010465354658663273,
				0.10320951789617538
			],
			"min":[
				-0.04431244358420372,
				-0.010465354658663273,
				-0.10200753062963486
			],
			"type":"VEC3"
		},
		{
			"bufferView":25,
			"componentType":5126,
			"count":227,
			"type":"VEC3"
		},
		{
			"bufferView":26,
			"componentType":5126,
			"count":227,
			"type":"VEC2"
		}
	],
	"bufferViews":[
		{
			"buffer":0,
			"byteLength":2724,
			"byteOffset":0,
			"target":34962
		},
		{
			"buffer":0,
			"byteLength":2724,
			"byteOffset":2724,
			"target":34962
		},
		{
			"buffer":0,
			"byteLength":1816,
			"byteOffset":5448,
			"target":34962
		},
		{
			"buffer":0,
			"byteLength":2304,
			"byteOffset":7264,
			"target":34963
		},
		{
			"buffer":0,
			"byteLength":2724,
			"byteOffset":9568,
			"target":34962
		},
		{
			"buffer":0,
			"byteLength":2724,
			"byteOffset":12292,
			"target":34962
		},
		{
			"buffer":0,
			"byteLength":1816,
			"byteOffset":15016,
			"target":34962
		},
		{
			"buffer":0,
			"byteLength":48,
			"byteOffset":16832,
			"target":34962
		},
		{
			"buffer":0,
			"byteLength":48,
			"byteOffset":16880,
			"target":34962
		},
		{
			"buffer":0,
			"byteLength":12,
			"byteOffset":16928,
			"target":34963
		},
		{
			"buffer":0,
			"byteLength":1860,
			"byteOffset":16940,
			"target":34962
		},
		{
			"buffer":0,
			"byteLength":1860,
			"byteOffset":18800,
			"target":34962
		},
		{
			"buffer":0,
			"byteLength":1240,
			"byteOffset":20660,
			"target":34962
		},
		{
			"buffer":0,
			"byteLength":1512,
			"byteOffset":21900,
			"target":34963
		},
		{
			"buffer":0,
			"byteLength":2304,
			"byteOffset":23412,
			"target":34962
		},
		{
			"buffer":0,
			"byteLength":2304,
			"byteOffset":25716,
			"target":34962
		},
		{
			"buffer":0,
			"byteLength":2100,
			"byteOffset":28020,
			"target":34963
		},
		{
			"buffer":0,
			"byteLength":1920,
			"byteOffset":30120,
			"target":34962
		},
		{
			"buffer":0,
			"byteLength":1920,
			"byteOffset":32040,
			"target":34962
		},
		{
			"buffer":0,
			"byteLength":1280,
			"byteOffset":33960,
			"target":34962
		},
		{
			"buffer":0,
			"byteLength":1512,
			"byteOffset":35240,
			"target":34963
		},
		{
			"buffer":0,
			"byteLength":1860,
			"byteOffset":36752,
			"target":34962
		},
		{
			"buffer":0,
			"byteLength":1860,
			"byteOffset":38612,
			"target":34962
		},
		{
			"buffer":0,
			"byteLength":1240,
			"byteOffset":40472,
			"target":34962
		},
		{
			"buffer":0,
			"byteLength":2724,
			"byteOffset":41712,
			"target":34962
		},
		{
			"buffer":0,
			"byteLength":2724,
			"byteOffset":44436,
			"target":34962
		},
		{
			"buffer":0,
			"byteLength":1816,
			"byteOffset":47160,
			"target":34962
		}
	],
	"buffers":[
		{
			"byteLength":48976,
			"uri":"data:application/octet-stream;base64,"
		}
	]
}
